<?xml version="1.0" encoding="UTF-8" standalone="no"?><!DOCTYPE svg PUBLIC "-//W3C//DTD SVG 1.1//EN" "http://www.w3.org/Graphics/SVG/1.1/DTD/svg11.dtd"><svg width="100%" height="100%" viewBox="0 0 123 123" version="1.1" xmlns="http://www.w3.org/2000/svg" xmlns:xlink="http://www.w3.org/1999/xlink" xml:space="preserve" xmlns:serif="http://www.serif.com/" style="fill-rule:evenodd;clip-rule:evenodd;stroke-linejoin:round;stroke-miterlimit:2;"><path d="M16.813,70.926l-15.013,0l0,-1.389l15.013,0l0,-35.392l0.094,0l31.282,-8.382l0,-3.827l-40.066,10.736l-0.36,-1.342l40.425,-10.832l0,-5.368l1.389,0l0,4.996l3.715,-0.995l0,-4l2.779,0l0,3.256l4.058,-1.087l0,-12.428l0.83,0l0,4.518l9.875,2.646l0,-7.164l2.779,0l0,7.909l2.217,0.594l0,-6.381l1.389,0l0,6.753l9.839,2.636l0,-6.649l9.13,0l0,9.095l7.902,2.117l-0,0.001l0,0l0,48.59l16.991,0l0,1.389l-16.991,0l0,4.142l8.265,0l0,2.779l-38.742,0l0,11.313l-2.779,0l0,-11.313l-14.762,0l0,11.313l-2.779,0l0,-11.313l-3.715,0l0,11.313l-1.389,0l0,-11.313l-40.466,-0l0,-2.779l9.091,0l-0,-4.142Zm2.779,-34.624l0,33.235l28.597,0l0,-40.897l-28.597,7.663Zm29.986,-14.738l0,3.827l3.715,-0.995l0,-3.827l-3.715,0.995Zm10.552,-2.827l-4.058,1.087l0,3.827l4.058,-1.087l0,-3.827Zm0.83,-6.471l-0,39.879l-0.83,0l-0,-26.704l-4.058,1.087l0,43.009l14.762,0l0,-54.625l-9.875,-2.646Zm14.87,3.984l-2.217,-0.594l0,53.88l27.698,0l0,-46.459l-24.092,-6.455l0,39.72l-1.389,0l0,-40.093Zm25.481,58.817l0,-4.142l-27.698,0l0,4.142l27.698,-0Zm-45.239,0l14.762,0l0,-4.142l-14.762,0l0,4.142Zm-6.494,0l3.715,0l0,-4.142l-3.715,-0l0,4.142Zm-29.986,0l28.597,0l0,-4.142l-28.597,0l-0,4.142Zm29.986,-46.8l0,41.269l3.715,0l0,-42.265l-3.715,0.995Zm38.881,10.566l0,5.458l-5.458,0l0,-5.458l5.458,0Zm0,-7.07l0,5.458l-5.458,0l0,-5.458l5.458,0Zm7.07,7.07l0,5.458l-5.458,0l0,-5.458l5.458,0Zm0,-7.07l0,5.458l-5.458,0l0,-5.458l5.458,0Zm-62.444,10.916l0,5.458l-5.458,0l0,-5.458l5.458,0Zm0,7.07l0,5.458l-5.458,0l0,-5.458l5.458,0Zm7.07,-7.07l0,5.458l-5.458,0l0,-5.458l5.458,0Zm0,7.07l0,5.458l-5.458,0l0,-5.458l5.458,0Z"/><g><path d="M22.013,103.678c-0.638,0.584 -1.454,0.876 -2.448,0.876c-1.23,0 -2.196,-0.394 -2.9,-1.183c-0.704,-0.793 -1.056,-1.879 -1.056,-3.26c0,-1.493 0.4,-2.643 1.201,-3.451c0.696,-0.704 1.582,-1.056 2.657,-1.056c1.439,0 2.49,0.472 3.155,1.415c0.367,0.53 0.565,1.061 0.592,1.595l-1.787,0c-0.116,-0.41 -0.265,-0.719 -0.447,-0.928c-0.325,-0.371 -0.806,-0.557 -1.444,-0.557c-0.65,0 -1.162,0.262 -1.537,0.786c-0.375,0.524 -0.563,1.265 -0.563,2.224c0,0.959 0.198,1.677 0.595,2.155c0.396,0.478 0.9,0.716 1.511,0.716c0.626,0 1.104,-0.205 1.433,-0.615c0.182,-0.22 0.333,-0.551 0.452,-0.992l1.769,0c-0.155,0.932 -0.549,1.69 -1.183,2.274Z" style="fill-rule:nonzero;"/><path d="M28.341,104.554c-1.222,0 -2.156,-0.333 -2.802,-0.998c-0.866,-0.816 -1.299,-1.992 -1.299,-3.527c0,-1.566 0.433,-2.742 1.299,-3.527c0.646,-0.665 1.58,-0.998 2.802,-0.998c1.222,0 2.156,0.333 2.802,0.998c0.862,0.785 1.294,1.961 1.294,3.527c0,1.535 -0.431,2.711 -1.294,3.527c-0.646,0.665 -1.58,0.998 -2.802,0.998Zm1.688,-2.297c0.414,-0.522 0.621,-1.265 0.621,-2.227c0,-0.959 -0.208,-1.701 -0.624,-2.224c-0.416,-0.524 -0.977,-0.786 -1.685,-0.786c-0.708,0 -1.272,0.261 -1.694,0.783c-0.422,0.522 -0.632,1.265 -0.632,2.227c0,0.963 0.211,1.705 0.632,2.227c0.422,0.522 0.986,0.783 1.694,0.783c0.708,0 1.27,-0.261 1.688,-0.783Z" style="fill-rule:nonzero;"/><path d="M40.714,104.316l-1.787,0l-3.492,-6.073l0,6.073l-1.665,0l0,-8.55l1.874,0l3.405,5.969l0,-5.969l1.665,0l0,8.55Z" style="fill-rule:nonzero;"/><path d="M45.482,103.08c0.422,0 0.764,-0.046 1.027,-0.139c0.499,-0.178 0.748,-0.509 0.748,-0.992c0,-0.282 -0.124,-0.501 -0.371,-0.655c-0.247,-0.151 -0.636,-0.284 -1.166,-0.4l-0.905,-0.203c-0.889,-0.201 -1.504,-0.42 -1.845,-0.655c-0.576,-0.394 -0.864,-1.011 -0.864,-1.85c0,-0.766 0.278,-1.402 0.835,-1.908c0.557,-0.507 1.375,-0.76 2.454,-0.76c0.901,0 1.67,0.239 2.306,0.716c0.636,0.478 0.97,1.171 1.001,2.079l-1.717,0c-0.031,-0.514 -0.255,-0.88 -0.673,-1.096c-0.278,-0.143 -0.625,-0.215 -1.038,-0.215c-0.46,0 -0.828,0.093 -1.102,0.278c-0.275,0.186 -0.412,0.445 -0.412,0.777c0,0.305 0.135,0.534 0.406,0.684c0.174,0.101 0.545,0.218 1.114,0.354l1.473,0.354c0.646,0.155 1.133,0.362 1.462,0.621c0.51,0.402 0.766,0.984 0.766,1.746c0,0.781 -0.299,1.43 -0.896,1.946c-0.597,0.516 -1.441,0.774 -2.532,0.774c-1.114,0 -1.99,-0.254 -2.628,-0.763c-0.638,-0.509 -0.957,-1.207 -0.957,-2.097l1.705,0c0.054,0.391 0.16,0.683 0.319,0.876c0.29,0.352 0.787,0.528 1.491,0.528Z" style="fill-rule:nonzero;"/><path d="M56.514,95.766l0,1.514l-2.558,0l0,7.036l-1.798,0l0,-7.036l-2.57,0l0,-1.514l6.926,0Z" style="fill-rule:nonzero;"/><path d="M61.19,100.963l-1.845,0l0,3.353l-1.746,0l0,-8.55l4.194,0c0.599,0.012 1.061,0.085 1.383,0.22c0.323,0.135 0.596,0.334 0.821,0.597c0.186,0.217 0.333,0.456 0.441,0.719c0.108,0.263 0.162,0.563 0.162,0.899c0,0.406 -0.102,0.805 -0.307,1.198c-0.205,0.393 -0.543,0.67 -1.015,0.832c0.394,0.159 0.674,0.384 0.838,0.676c0.164,0.292 0.247,0.738 0.247,1.337l0,0.574c0,0.391 0.015,0.655 0.046,0.795c0.046,0.22 0.155,0.383 0.325,0.487l0,0.215l-1.966,0c-0.054,-0.189 -0.093,-0.342 -0.116,-0.458c-0.046,-0.24 -0.072,-0.485 -0.075,-0.737l-0.012,-0.795c-0.008,-0.545 -0.107,-0.909 -0.299,-1.09c-0.191,-0.182 -0.55,-0.273 -1.076,-0.273Zm1.085,-1.555c0.356,-0.162 0.534,-0.483 0.534,-0.963c0,-0.518 -0.172,-0.866 -0.516,-1.044c-0.193,-0.101 -0.483,-0.151 -0.87,-0.151l-2.077,0l0,2.297l2.024,0c0.402,0 0.704,-0.046 0.905,-0.139Z" style="fill-rule:nonzero;"/><path d="M71.195,101.021l0,-5.255l1.816,0l0,5.255c0,0.909 -0.141,1.616 -0.423,2.123c-0.526,0.928 -1.529,1.392 -3.01,1.392c-1.481,0 -2.486,-0.464 -3.016,-1.392c-0.282,-0.507 -0.423,-1.214 -0.423,-2.123l0,-5.255l1.816,0l0,5.255c0,0.588 0.07,1.017 0.209,1.288c0.217,0.48 0.688,0.719 1.415,0.719c0.723,0 1.193,-0.24 1.41,-0.719c0.139,-0.271 0.209,-0.7 0.209,-1.288Z" style="fill-rule:nonzero;"/><path d="M80.778,97.28l-4.287,0l0,1.966l3.753,0l0,1.485l-3.753,0l0,3.585l-1.775,0l0,-8.538l6.062,0l0,1.502Z" style="fill-rule:nonzero;"/><path d="M86.329,102.558l-3.15,0l-0.592,1.758l-1.868,0l3.051,-8.55l2.019,0l3.028,8.55l-1.937,0l-0.551,-1.758Zm-0.499,-1.473l-1.067,-3.364l-1.102,3.364l2.169,0Z" style="fill-rule:nonzero;"/><path d="M95.935,103.678c-0.638,0.584 -1.454,0.876 -2.448,0.876c-1.23,0 -2.196,-0.394 -2.9,-1.183c-0.704,-0.793 -1.056,-1.879 -1.056,-3.26c0,-1.493 0.4,-2.643 1.201,-3.451c0.696,-0.704 1.582,-1.056 2.657,-1.056c1.439,0 2.49,0.472 3.155,1.415c0.367,0.53 0.565,1.061 0.592,1.595l-1.787,0c-0.116,-0.41 -0.265,-0.719 -0.447,-0.928c-0.325,-0.371 -0.806,-0.557 -1.444,-0.557c-0.65,0 -1.162,0.262 -1.537,0.786c-0.375,0.524 -0.563,1.265 -0.563,2.224c0,0.959 0.198,1.677 0.595,2.155c0.396,0.478 0.9,0.716 1.511,0.716c0.626,0 1.104,-0.205 1.433,-0.615c0.182,-0.22 0.333,-0.551 0.452,-0.992l1.769,0c-0.155,0.932 -0.549,1.69 -1.183,2.274Z" style="fill-rule:nonzero;"/><rect x="98.342" y="95.766" width="1.775" height="8.55" style="fill-rule:nonzero;"/><path d="M101.781,95.766l1.787,0l0,7.013l4.234,0l0,1.537l-6.021,0l0,-8.55Z" style="fill-rule:nonzero;"/></g><g><path d="M31.642,109.222l0,1.514l-2.558,0l0,7.036l-1.798,0l0,-7.036l-2.57,0l0,-1.514l6.926,0Z" style="fill-rule:nonzero;"/><path d="M36.816,116.014l-3.15,0l-0.592,1.758l-1.868,0l3.051,-8.55l2.019,0l3.028,8.55l-1.937,0l-0.551,-1.758Zm-0.499,-1.473l-1.067,-3.364l-1.102,3.364l2.169,0Z" style="fill-rule:nonzero;"/><path d="M44.293,117.772l-3.875,0l0,-8.55l4.153,0c1.048,0.015 1.79,0.319 2.227,0.911c0.263,0.363 0.394,0.799 0.394,1.305c0,0.522 -0.131,0.942 -0.394,1.259c-0.147,0.178 -0.363,0.34 -0.65,0.487c0.437,0.159 0.767,0.41 0.989,0.754c0.222,0.344 0.334,0.762 0.334,1.253c0,0.507 -0.128,0.961 -0.383,1.363c-0.162,0.267 -0.365,0.491 -0.609,0.673c-0.275,0.209 -0.598,0.352 -0.972,0.429c-0.373,0.077 -0.778,0.116 -1.215,0.116Zm-0.041,-3.765l-2.129,0l0,2.28l2.1,0c0.375,0 0.667,-0.05 0.876,-0.151c0.379,-0.186 0.568,-0.541 0.568,-1.067c0,-0.445 -0.184,-0.75 -0.551,-0.916c-0.205,-0.093 -0.493,-0.141 -0.864,-0.145Zm0.887,-1.63c0.232,-0.139 0.348,-0.389 0.348,-0.748c0,-0.398 -0.155,-0.661 -0.464,-0.789c-0.267,-0.089 -0.607,-0.133 -1.021,-0.133l-1.879,0l0,1.885l2.1,0c0.375,0 0.681,-0.072 0.916,-0.215Z" style="fill-rule:nonzero;"/><path d="M48.968,109.222l1.787,0l0,7.013l4.234,0l0,1.537l-6.021,0l0,-8.55Z" style="fill-rule:nonzero;"/><path d="M61.23,116.014l-3.15,0l-0.592,1.758l-1.868,0l3.051,-8.55l2.019,0l3.028,8.55l-1.937,0l-0.551,-1.758Zm-0.499,-1.473l-1.067,-3.364l-1.102,3.364l2.169,0Z" style="fill-rule:nonzero;"/><path d="M68.434,114.419l-1.845,0l0,3.353l-1.746,0l0,-8.55l4.194,0c0.599,0.012 1.061,0.085 1.383,0.22c0.323,0.135 0.596,0.334 0.821,0.597c0.186,0.217 0.333,0.456 0.441,0.719c0.108,0.263 0.162,0.563 0.162,0.899c0,0.406 -0.102,0.805 -0.307,1.198c-0.205,0.393 -0.543,0.67 -1.015,0.832c0.394,0.159 0.674,0.384 0.838,0.676c0.164,0.292 0.247,0.738 0.247,1.337l0,0.574c0,0.391 0.015,0.655 0.046,0.795c0.046,0.22 0.155,0.383 0.325,0.487l0,0.215l-1.966,0c-0.054,-0.189 -0.093,-0.342 -0.116,-0.458c-0.046,-0.24 -0.072,-0.485 -0.075,-0.737l-0.012,-0.795c-0.008,-0.545 -0.107,-0.909 -0.299,-1.09c-0.191,-0.182 -0.55,-0.273 -1.076,-0.273Zm1.085,-1.555c0.356,-0.162 0.534,-0.483 0.534,-0.963c0,-0.518 -0.172,-0.866 -0.516,-1.044c-0.193,-0.101 -0.483,-0.151 -0.87,-0.151l-2.077,0l0,2.297l2.024,0c0.402,0 0.704,-0.046 0.905,-0.139Z" style="fill-rule:nonzero;"/><path d="M77.164,118.009c-1.222,0 -2.156,-0.333 -2.802,-0.998c-0.866,-0.816 -1.299,-1.992 -1.299,-3.527c0,-1.566 0.433,-2.742 1.299,-3.527c0.646,-0.665 1.58,-0.998 2.802,-0.998c1.222,0 2.156,0.333 2.802,0.998c0.862,0.785 1.294,1.961 1.294,3.527c0,1.535 -0.431,2.711 -1.294,3.527c-0.646,0.665 -1.58,0.998 -2.802,0.998Zm1.688,-2.297c0.414,-0.522 0.621,-1.265 0.621,-2.227c0,-0.959 -0.208,-1.701 -0.624,-2.224c-0.416,-0.524 -0.977,-0.786 -1.685,-0.786c-0.708,0 -1.272,0.261 -1.694,0.783c-0.422,0.522 -0.632,1.265 -0.632,2.227c0,0.963 0.211,1.705 0.632,2.227c0.422,0.522 0.986,0.783 1.694,0.783c0.708,0 1.27,-0.261 1.688,-0.783Z" style="fill-rule:nonzero;"/><path d="M88.655,117.134c-0.638,0.584 -1.454,0.876 -2.448,0.876c-1.23,0 -2.196,-0.394 -2.9,-1.183c-0.704,-0.793 -1.056,-1.879 -1.056,-3.26c0,-1.493 0.4,-2.643 1.201,-3.451c0.696,-0.704 1.582,-1.056 2.657,-1.056c1.439,0 2.49,0.472 3.155,1.415c0.367,0.53 0.565,1.061 0.592,1.595l-1.787,0c-0.116,-0.41 -0.265,-0.719 -0.447,-0.928c-0.325,-0.371 -0.806,-0.557 -1.444,-0.557c-0.65,0 -1.162,0.262 -1.537,0.786c-0.375,0.524 -0.563,1.265 -0.563,2.224c0,0.959 0.198,1.677 0.595,2.155c0.396,0.478 0.9,0.716 1.511,0.716c0.626,0 1.104,-0.205 1.433,-0.615c0.182,-0.22 0.333,-0.551 0.452,-0.992l1.769,0c-0.155,0.932 -0.549,1.69 -1.183,2.274Z" style="fill-rule:nonzero;"/><path d="M96.207,116.014l-3.15,0l-0.592,1.758l-1.868,0l3.051,-8.55l2.019,0l3.028,8.55l-1.937,0l-0.551,-1.758Zm-0.499,-1.473l-1.067,-3.364l-1.102,3.364l2.169,0Z" style="fill-rule:nonzero;"/></g></svg>